PathFileType	4	(X/Y/Z)	/Users/itak/Documents/Research/Walk-IL/dataset/trc/00061_00006.trc
DataRate	CameraRate	NumFrames	NumMarkers	Units	OrigDataRate	OrigDataStartFrame	OrigNumFrames
100.000000	100.000000	4	53	mm	100.000000	495	793
Frame#	Time	RPSI			LPSI			L3			STRN			T10			C7			CLAV			RBAK			LBAK			LSHO			LUPA			LAEL			LAOL			LWTS			LWPS			LFRA			LIFD			LHPS			LHTS			RSHO			RUPA			RAEL			RAOL			RWTS			RWPS			RFRA			RIFD			RHTS			RHPS			RBHD			LFHD			RFHD			LBHD			LHIP			RHIP			RASI			LASI			LKNE			LTHI			LANK			LTIP			LTOE			LMT1			LMT5			LHEE			RKNE			RTHI			RANK			RTIP			RTOE			RMT1			RMT5			RHEE			
		X1	Y1	Z1	X2	Y2	Z2	X3	Y3	Z3	X4	Y4	Z4	X5	Y5	Z5	X6	Y6	Z6	X7	Y7	Z7	X8	Y8	Z8	X9	Y9	Z9	X10	Y10	Z10	X11	Y11	Z11	X12	Y12	Z12	X13	Y13	Z13	X14	Y14	Z14	X15	Y15	Z15	X16	Y16	Z16	X17	Y17	Z17	X18	Y18	Z18	X19	Y19	Z19	X20	Y20	Z20	X21	Y21	Z21	X22	Y22	Z22	X23	Y23	Z23	X24	Y24	Z24	X25	Y25	Z25	X26	Y26	Z26	X27	Y27	Z27	X28	Y28	Z28	X29	Y29	Z29	X30	Y30	Z30	X31	Y31	Z31	X32	Y32	Z32	X33	Y33	Z33	X34	Y34	Z34	X35	Y35	Z35	X36	Y36	Z36	X37	Y37	Z37	X38	Y38	Z38	X39	Y39	Z39	X40	Y40	Z40	X41	Y41	Z41	X42	Y42	Z42	X43	Y43	Z43	X44	Y44	Z44	X45	Y45	Z45	X46	Y46	Z46	X47	Y47	Z47	X48	Y48	Z48	X49	Y49	Z49	X50	Y50	Z50	X51	Y51	Z51	X52	Y52	Z52	X53	Y53	Z53	

496	4.95	-571.0767822265625	1013.301940917969	-386.7666625976562	-431.38330078125	995.2532958984375	-284.7842102050781	-496.3590698242188	1063.8271484375	-327.2152404785156	-678.4494018554688	1264.364501953125	-155.7498626708984	-475.8746948242188	1196.090942382812	-335.9585266113281	-523.7088623046875	1464.056274414062	-303.5179443359375	-656.29931640625	1377.886474609375	-181.3939056396484	-525.620361328125	1322.10791015625	-393.7496032714844	-437.4270935058594	1431.043579101562	-244.1328582763672	-466.6998901367188	1438.1748046875	-121.8293914794922	-398.3133239746094	1317.636108398438	-70.41837310791016	-393.501953125	1105.14306640625	-25.64365386962891	-400.2282409667969	1082.6748046875	-128.1902465820312	-554.3064575195312	898.5699462890625	-0.3870740830898285	-476.1956176757812	868.2977294921875	8.959991455078125	-425.3222961425781	1000.94287109375	2.406331062316895	-619.7343139648438	723.2294921875	4.349189758300781	-522.1292724609375	797.918212890625	30.85465431213379	-588.2523193359375	822.793701171875	21.11670303344727	-686.4860229492188	1424.092407226562	-388.5233154296875	-714.711669921875	1360.933227539062	-446.0470581054688	-700.5327758789062	1118.28955078125	-534.8740234375	-656.1929321289062	1081.600708007812	-453.9372863769531	-774.641845703125	843.5606689453125	-460.7001342773438	-748.2088623046875	847.5132446289062	-543.65234375	-713.2427368164062	1037.218994140625	-547.8988037109375	-731.59912109375	656.411865234375	-486.5511779785156	-772.9427490234375	734.782470703125	-470.4176940917969	-759.9661254882812	753.903076171875	-544.3349609375	-528.1870727539062	1640.323486328125	-286.5093078613281	-699.3701171875	1679.03369140625	-160.1266021728516	-580.4109497070312	1677.0185546875	-119.3688507080078	-661.6734008789062	1634.821899414062	-322.0877685546875	-427.1398315429688	929.23193359375	-147.5657653808594	-677.7754516601562	950.2064819335938	-382.9356384277344	-741.4370727539062	971.8905639648438	-276.2273559570312	-542.2257080078125	947.1466064453125	-98.36115264892578	-566.3314208984375	455.3793029785156	-128.5337677001953	-506.672607421875	600.1774291992188	-126.2718734741211	-287.844970703125	181.3112030029297	-430.3510437011719	-409.7420959472656	306.4389343261719	-278.3526916503906	-415.1451416015625	34.5843391418457	-401.2838134765625	-414.0475158691406	79.20999145507812	-448.3580932617188	-320.5405883789062	83.66856384277344	-389.8654174804688	-308.5780944824219	244.3998870849609	-494.1198425292969	-797.0595703125	531.865966796875	-228.6528930664062	-769.0916748046875	793.7720947265625	-292.5966491699219	-817.84716796875	38.46572875976562	-284.2005004882812	-815.19580078125	404.3434753417969	-235.4608306884766	-879.0742797851562	51.58344268798828	-75.634033203125	-817.2669677734375	54.70117950439453	-111.5458068847656	-886.1720581054688	45.29785537719727	-181.0801239013672	-746.3319091796875	42.60058975219727	-300.6700134277344	
497	4.96	-578.2431640625	1014.765014648438	-381.5394287109375	-437.3414306640625	995.658447265625	-281.2296142578125	-503.1739501953125	1065.4033203125	-323.1337890625	-683.3938598632812	1265.2421875	-148.6935882568359	-483.4191589355469	1197.728149414062	-332.0735473632812	-531.0194702148438	1465.52392578125	-298.3395690917969	-661.7037353515625	1378.888671875	-174.3187255859375	-534.2684936523438	1323.78125	-388.9112548828125	-443.9321594238281	1432.369384765625	-240.2633209228516	-471.4775085449219	1439.174926757812	-117.4134368896484	-402.1925659179688	1318.52490234375	-67.36386871337891	-396.5819091796875	1105.904174804688	-23.17562675476074	-404.1995544433594	1083.854248046875	-125.865592956543	-553.9197998046875	896.9440307617188	3.738715648651123	-475.3318481445312	867.872314453125	12.00949001312256	-426.6045837402344	1001.230163574219	4.9842848777771	-616.7576293945312	720.64404296875	8.810375213623047	-519.9360961914062	796.76123046875	34.35020446777344	-586.53271484375	820.649658203125	25.44571495056152	-695.1814575195312	1425.500610351562	-380.9386596679688	-724.3872680664062	1362.385131835938	-438.1004638671875	-711.966064453125	1119.580200195312	-527.3417358398438	-666.2528686523438	1082.86962890625	-447.1916198730469	-785.553955078125	845.2227783203125	-451.4036254882812	-760.31689453125	848.7978515625	-534.7705688476562	-725.0252075195312	1038.4833984375	-540.035888671875	-743.7672119140625	657.82373046875	-477.1292724609375	-784.4205322265625	736.4296875	-460.7531127929688	-772.361328125	755.2134399414062	-534.925537109375	-535.3579711914062	1641.618041992188	-280.8937072753906	-705.0361328125	1680.002563476562	-152.2795104980469	-585.552001953125	1678.06201171875	-113.021125793457	-669.376220703125	1636.021484375	-314.7368774414062	-432.2173461914062	929.9971923828125	-143.782958984375	-684.6429443359375	951.46875	-377.0834045410156	-747.6079711914062	972.9583740234375	-269.8797302246094	-546.8884887695312	948.32666015625	-93.53038787841797	-577.1181030273438	458.0433654785156	-111.8852844238281	-515.2548828125	602.1942138671875	-114.2653503417969	-301.6282348632812	190.8297424316406	-421.8767700195312	-422.3054504394531	311.6519470214844	-266.2064208984375	-423.1773986816406	37.18461227416992	-387.6780700683594	-425.1715393066406	84.52661895751953	-435.1045837402344	-329.8978271484375	92.46587371826172	-380.123291015625	-325.5288696289062	252.8381042480469	-485.2715454101562	-800.6013793945312	531.5737915039062	-226.2824401855469	-774.3190307617188	794.092529296875	-288.0977783203125	-817.8812255859375	38.42303466796875	-284.1445007324219	-817.6754760742188	404.0358276367188	-234.1271667480469	-879.7271118164062	50.66533279418945	-75.55963897705078	-817.654296875	54.47795486450195	-111.3887176513672	-886.6357421875	44.7732048034668	-181.0388336181641	-746.3017578125	42.69327926635742	-300.5612487792969	
498	4.97	-585.1036987304688	1016.251098632812	-376.2464599609375	-443.0994873046875	996.26806640625	-277.5162048339844	-509.768798828125	1066.957397460938	-318.961181640625	-688.1262817382812	1266.174072265625	-141.6452026367188	-490.7753295898438	1199.411376953125	-328.2049865722656	-538.1394653320312	1467.011474609375	-293.1673278808594	-666.89208984375	1379.932373046875	-167.25830078125	-542.7532348632812	1325.467041015625	-384.04296875	-450.2696838378906	1433.7333984375	-236.4280395507812	-476.0151977539062	1440.200805664062	-113.0705795288086	-405.7864685058594	1319.438842773438	-64.44651794433594	-399.2883605957031	1106.7158203125	-20.88614273071289	-407.9154357910156	1085.105834960938	-123.729606628418	-553.1459350585938	895.4424438476562	7.661470413208008	-474.1183776855469	867.5361938476562	14.81491947174072	-427.5036926269531	1001.585815429688	7.343155384063721	-613.5343017578125	718.31298828125	13.08184432983398	-517.4346313476562	795.736572265625	37.590087890625	-584.4429321289062	818.6995849609375	29.57539176940918	-703.66796875	1426.937622070312	-373.3044128417969	-733.8816528320312	1363.838989257812	-430.0637817382812	-723.3115844726562	1120.8720703125	-519.626708984375	-676.2418823242188	1084.154052734375	-440.2847595214844	-796.3585815429688	846.9024047851562	-441.9074096679688	-772.377197265625	850.1251220703125	-525.68115234375	-736.730224609375	1039.76416015625	-531.9783935546875	-755.858154296875	659.2621459960938	-467.6106872558594	-795.7944946289062	738.0949096679688	-450.9257507324219	-784.7257080078125	756.5701293945312	-525.3433227539062	-542.369140625	1642.968994140625	-275.21630859375	-710.4874877929688	1680.955932617188	-144.3484954833984	-590.4869384765625	1679.093872070312	-106.6271438598633	-676.9039306640625	1637.281005859375	-307.3010864257812	-437.1305541992188	931.0001831054688	-139.8341217041016	-691.1982421875	952.7064819335938	-371.2940063476562	-753.5928955078125	974.0062255859375	-263.6609802246094	-551.4932861328125	949.6005249023438	-88.67894744873047	-587.4414672851562	461.257080078125	-95.27084350585938	-523.470947265625	604.6292114257812	-102.1914367675781	-316.2596740722656	199.3544464111328	-412.843994140625	-434.9451293945312	316.7025451660156	-253.8540344238281	-432.6641540527344	41.00032424926758	-372.2008056640625	-437.5766906738281	89.68022155761719	-420.3810119628906	-340.7041015625	101.117561340332	-368.9247436523438	-343.0010375976562	259.8100891113281	-476.2933959960938	-803.9922485351562	531.3241577148438	-223.9571838378906	-779.2832641601562	794.4638671875	-283.5496520996094	-817.908935546875	38.38966751098633	-284.1014709472656	-819.961181640625	403.7661743164062	-232.8184509277344	-880.2821044921875	49.92830657958984	-75.54564666748047	-817.9877319335938	54.32469177246094	-111.2704544067383	-887.033447265625	44.34797668457031	-181.0351867675781	-746.2863159179688	42.78832244873047	-300.4794616699219	
499	4.98	-591.6961669921875	1017.751403808594	-370.8974914550781	-448.6875305175781	997.1109619140625	-273.6534118652344	-516.1676025390625	1068.485229492188	-314.697265625	-692.6710205078125	1267.175170898438	-134.6067657470703	-497.9568481445312	1201.132446289062	-324.3024597167969	-545.0851440429688	1468.515380859375	-287.9851684570312	-671.8889770507812	1381.03173828125	-160.2242431640625	-551.06884765625	1327.155639648438	-379.1162414550781	-456.453369140625	1435.14697265625	-232.6100158691406	-480.3218994140625	1441.276489257812	-108.8121643066406	-409.1293334960938	1320.413208007812	-61.64541244506836	-401.6314086914062	1107.605590820312	-18.79323196411133	-411.4533996582031	1086.45166015625	-121.7563629150391	-552.0057983398438	894.0805053710938	11.38955307006836	-472.5628662109375	867.3131713867188	17.34333229064941	-428.0369262695312	1002.035888671875	9.465047836303711	-610.0441284179688	716.2222290039062	17.19743728637695	-514.60693359375	794.8552856445312	40.55585861206055	-581.9808959960938	816.939208984375	33.52835464477539	-711.9373779296875	1428.4072265625	-365.6302490234375	-743.1664428710938	1365.304443359375	-421.9505310058594	-734.5484619140625	1122.173583984375	-511.727783203125	-686.1449584960938	1085.457275390625	-433.2118530273438	-807.031005859375	848.6052856445312	-432.2100219726562	-784.3826904296875	851.5101928710938	-516.381591796875	-748.3357543945312	1041.070068359375	-523.724609375	-767.825927734375	660.7355346679688	-458.0123901367188	-807.0543212890625	739.7858276367188	-440.9437866210938	-797.0447387695312	757.9888305664062	-515.5908813476562	-549.2279052734375	1644.379150390625	-269.4790649414062	-715.7154541015625	1681.90234375	-136.3311309814453	-595.209716796875	1680.12255859375	-100.1896667480469	-684.2538452148438	1638.607177734375	-299.7844543457031	-441.8788452148438	932.2678833007812	-135.7362823486328	-697.4835815429688	953.9175415039062	-365.5476379394531	-759.400390625	975.0250244140625	-257.5353393554688	-556.015380859375	950.9856567382812	-83.79898071289062	-597.2425537109375	465.0039978027344	-78.74102020263672	-531.3005981445312	607.477294921875	-90.06492614746094	-331.6117858886719	206.6871643066406	-403.1961669921875	-447.5890808105469	321.5041809082031	-241.3017883300781	-443.616943359375	45.70552444458008	-355.2144775390625	-451.1452331542969	94.49471282958984	-404.4783935546875	-352.9049377441406	109.2615280151367	-356.4058532714844	-360.8634033203125	265.2442932128906	-467.0518493652344	-807.263671875	531.117431640625	-221.6399383544922	-784.0388793945312	794.8923950195312	-278.9044189453125	-817.9270629882812	38.36775207519531	-284.0605163574219	-822.0905151367188	403.5330200195312	-231.4650268554688	-880.747314453125	49.32236480712891	-75.55794525146484	-818.2780151367188	54.21479034423828	-111.172004699707	-887.370849609375	44.01736450195312	-181.0538940429688	-746.2940673828125	42.89943313598633	-300.4158935546875	
